<?xml version="1.0" encoding="UTF-8"?>
<!DOCTYPE svg PUBLIC "-//W3C//DTD SVG 1.1//EN" "http://www.w3.org/Graphics/SVG/1.1/DTD/svg11.dtd">
<svg xmlns="http://www.w3.org/2000/svg" version="1.1" width="1024px" height="1024px" style="shape-rendering:geometricPrecision; text-rendering:geometricPrecision; image-rendering:optimizeQuality; fill-rule:evenodd; clip-rule:evenodd" xmlns:xlink="http://www.w3.org/1999/xlink">
<g><path style="opacity:0.595" fill="#949bb3" d="M 644.5,-0.5 C 646.5,-0.5 648.5,-0.5 650.5,-0.5C 664.673,13.8396 678.673,28.3396 692.5,43C 679.391,90.8223 666.391,138.656 653.5,186.5C 653.5,186.833 653.5,187.167 653.5,187.5C 652.833,187.5 652.5,187.833 652.5,188.5C 652.008,190.819 651.008,192.819 649.5,194.5C 662.466,143.8 676.133,93.3004 690.5,43C 676.195,29.696 662.195,16.0294 648.5,2C 629.869,6.11672 611.369,10.9501 593,16.5C 580.468,61.0983 568.135,105.765 556,150.5C 523,117.5 490,84.5 457,51.5C 419.884,62.0716 382.717,72.5716 345.5,83C 406.035,143.701 466.701,204.201 527.5,264.5C 527.5,265.167 527.833,265.5 528.5,265.5C 530.678,267.858 532.345,270.525 533.5,273.5C 469.521,210.188 405.854,146.521 342.5,82.5C 364.255,75.3918 386.255,68.8918 408.5,63C 425.463,58.1764 442.463,53.843 459.5,50C 490.972,82.4722 522.805,114.639 555,146.5C 566.833,103 578.667,59.5 590.5,16C 590.905,15.0546 591.572,14.3879 592.5,14C 610.039,9.45188 627.373,4.61855 644.5,-0.5 Z"/></g>
<g><path style="opacity:0.559" fill="#949ab2" d="M 300.5,225.5 C 300.5,226.167 300.833,226.5 301.5,226.5C 301.5,227.167 301.833,227.5 302.5,227.5C 304.098,229.698 305.431,232.031 306.5,234.5C 269.035,197.535 231.701,160.368 194.5,123C 175.364,127.202 156.364,132.202 137.5,138C 131.95,156.369 127.117,174.869 123,193.5C 154.986,226.319 187.152,258.986 219.5,291.5C 174.973,304.133 130.306,316.467 85.5,328.5C 75.4829,365.902 66.1496,403.235 57.5,440.5C 141.322,417.964 224.989,395.297 308.5,372.5C 311.167,372.5 313.833,372.5 316.5,372.5C 228.938,396.695 141.272,420.028 53.5,442.5C 63.6049,403.579 73.9382,364.746 84.5,326C 128.5,314.333 172.5,302.667 216.5,291C 184.667,259.167 152.833,227.333 121,195.5C 124.715,175.637 129.549,155.97 135.5,136.5C 152.339,131.206 169.339,126.373 186.5,122C 189.768,120.787 193.101,120.454 196.5,121C 230.674,156.34 265.34,191.174 300.5,225.5 Z"/></g>
<g><path style="opacity:0.578" fill="#949ab2" d="M 1023.5,371.5 C 1023.5,374.167 1023.5,376.833 1023.5,379.5C 1018.38,396.627 1013.55,413.961 1009,431.5C 1008.5,432 1008,432.5 1007.5,433C 958.339,446.038 909.339,459.205 860.5,472.5C 857.833,472.5 855.167,472.5 852.5,472.5C 903.629,458.382 954.962,444.549 1006.5,431C 1011.83,412 1017.17,393 1022.5,374C 1008.93,359.925 994.927,346.425 980.5,333.5C 935.914,345.646 891.247,357.146 846.5,368C 858.405,324.884 870.238,281.717 882,238.5C 882.667,236.833 882.667,235.167 882,233.5C 855.472,206.638 828.639,180.138 801.5,154C 800.4,153.568 799.733,154.068 799.5,155.5C 777.517,236.766 755.851,318.099 734.5,399.5C 733.662,399.842 733.328,400.508 733.5,401.5C 732.674,404.485 731.341,407.151 729.5,409.5C 752.212,322.651 775.545,235.985 799.5,149.5C 828.69,177.191 857.357,205.357 885.5,234C 873.692,277.751 861.692,321.418 849.5,365C 893.841,354.373 938.007,342.873 982,330.5C 995.701,344.369 1009.53,358.035 1023.5,371.5 Z"/></g>
<g><path style="opacity:0.989" fill="#89b4fa" d="M 400.5,241.5 C 400.833,242.5 401.5,243.167 402.5,243.5C 411.776,260.551 421.442,277.384 431.5,294C 466.832,294.5 502.165,294.667 537.5,294.5C 539.9,299.632 542.566,304.632 545.5,309.5C 545.427,311.027 546.094,312.027 547.5,312.5C 558.069,331.303 568.902,349.97 580,368.5C 581.009,370.025 581.509,371.692 581.5,373.5C 507.167,373.5 432.833,373.5 358.5,373.5C 358.167,373.5 357.833,373.5 357.5,373.5C 344.01,372.504 330.344,372.171 316.5,372.5C 313.833,372.5 311.167,372.5 308.5,372.5C 270.494,372.833 232.494,372.5 194.5,371.5C 208.833,346.167 223.167,320.833 237.5,295.5C 271.828,294.667 306.162,294.167 340.5,294C 329.028,274.221 317.695,254.387 306.5,234.5C 305.431,232.031 304.098,229.698 302.5,227.5C 301.833,227.5 301.5,227.167 301.5,226.5C 300.833,226.5 300.5,226.167 300.5,225.5C 297.175,218.85 293.842,212.184 290.5,205.5C 297.231,193.042 304.231,180.708 311.5,168.5C 327.156,166.913 342.823,166.58 358.5,167.5C 372.956,191.944 386.956,216.611 400.5,241.5 Z"/></g>
<g><path style="opacity:0.992" fill="#73c7ec" d="M 649.5,194.5 C 651.008,192.819 652.008,190.819 652.5,188.5C 653.167,188.5 653.5,188.167 653.5,187.5C 653.5,187.167 653.5,186.833 653.5,186.5C 657.643,180.898 661.31,174.898 664.5,168.5C 679.822,167.334 695.156,167.167 710.5,168C 717.793,180.084 724.959,192.251 732,204.5C 732.667,206.167 732.667,207.833 732,209.5C 717.89,233.392 704.057,257.392 690.5,281.5C 689.167,281.5 688.5,282.167 688.5,283.5C 678.712,300.24 669.045,317.074 659.5,334C 676.28,364.395 693.447,394.561 711,424.5C 711.667,425.5 711.667,426.5 711,427.5C 708.488,431.861 705.988,436.194 703.5,440.5C 702.662,440.842 702.328,441.508 702.5,442.5C 690.778,462.935 678.778,483.268 666.5,503.5C 628.638,439.105 591.305,374.439 554.5,309.5C 552.833,306.833 551.167,304.167 549.5,301.5C 549.5,300.833 549.167,300.5 548.5,300.5C 548.5,299.833 548.167,299.5 547.5,299.5C 543.264,290.598 538.597,281.932 533.5,273.5C 532.345,270.525 530.678,267.858 528.5,265.5C 527.833,265.5 527.5,265.167 527.5,264.5C 509.696,232.229 491.363,200.229 472.5,168.5C 502.535,167.635 532.535,167.135 562.5,167C 579.288,196.746 596.455,226.246 614,255.5C 625.874,235.072 637.707,214.738 649.5,194.5 Z"/></g>
<g><path style="opacity:0.551" fill="#949ab3" d="M 547.5,299.5 C 548.167,299.5 548.5,299.833 548.5,300.5C 549.167,300.5 549.5,300.833 549.5,301.5C 551.167,304.167 552.833,306.833 554.5,309.5C 551.539,309.464 549.206,310.464 547.5,312.5C 546.094,312.027 545.427,311.027 545.5,309.5C 547.989,309.461 549.489,308.461 550,306.5C 545.964,302.296 541.798,298.296 537.5,294.5C 514.854,271.188 491.854,248.188 468.5,225.5C 446.471,231.507 424.471,237.507 402.5,243.5C 401.5,243.167 400.833,242.5 400.5,241.5C 423.737,235.024 447.07,229.191 470.5,224C 495.73,249.731 521.397,274.898 547.5,299.5 Z"/></g>
<g><path style="opacity:0.528" fill="#959ab3" d="M 690.5,281.5 C 707.145,298.479 723.812,315.479 740.5,332.5C 730.852,367.76 721.518,403.094 712.5,438.5C 711.833,438.5 711.5,438.833 711.5,439.5C 711.104,442.721 709.771,445.388 707.5,447.5C 705.5,446.167 703.833,444.5 702.5,442.5C 702.328,441.508 702.662,440.842 703.5,440.5C 705.129,441.625 706.629,442.959 708,444.5C 718.782,407.037 728.449,369.37 737,331.5C 720.965,315.298 704.799,299.298 688.5,283.5C 688.5,282.167 689.167,281.5 690.5,281.5 Z"/></g>
<g><path style="opacity:0.994" fill="#89b4fa" d="M 852.5,472.5 C 855.167,472.5 857.833,472.5 860.5,472.5C 869.506,472.334 878.506,472.5 887.5,473C 894.833,485.667 902.167,498.333 909.5,511C 901.874,523.751 894.374,536.585 887,549.5C 858.24,550.495 829.407,550.829 800.5,550.5C 800.44,549.957 800.107,549.624 799.5,549.5C 798.818,550.243 798.151,550.909 797.5,551.5C 778.33,550.458 758.996,549.958 739.5,550C 721.959,580.249 704.293,610.415 686.5,640.5C 680.872,641.495 675.206,641.829 669.5,641.5C 668.5,641.5 667.5,641.5 666.5,641.5C 643.167,641.5 619.833,641.5 596.5,641.5C 632.964,576.578 669.964,511.912 707.5,447.5C 709.771,445.388 711.104,442.721 711.5,439.5C 712.167,439.5 712.5,439.167 712.5,438.5C 718.404,429.033 724.071,419.367 729.5,409.5C 731.341,407.151 732.674,404.485 733.5,401.5C 734.338,401.158 734.672,400.492 734.5,399.5C 753.226,368.395 771.726,337.061 790,305.5C 805.804,330.938 820.971,356.772 835.5,383C 818.759,412.481 801.759,441.814 784.5,471C 807.169,471.486 829.836,471.986 852.5,472.5 Z"/></g>
<g><path style="opacity:0.571" fill="#9399b1" d="M 357.5,373.5 C 357.833,373.5 358.167,373.5 358.5,373.5C 358.142,376.267 357.475,378.933 356.5,381.5C 355.833,382.833 355.167,382.833 354.5,381.5C 355.038,379.883 355.371,378.216 355.5,376.5C 348.91,377.592 342.577,379.259 336.5,381.5C 304.986,389.168 273.819,397.835 243,407.5C 237.162,429.519 231.329,451.519 225.5,473.5C 224.833,473.5 224.167,473.5 223.5,473.5C 229.063,450.243 235.397,427.243 242.5,404.5C 280.716,393.696 319.049,383.363 357.5,373.5 Z M 354.5,381.5 C 348.5,381.5 342.5,381.5 336.5,381.5C 342.577,379.259 348.91,377.592 355.5,376.5C 355.371,378.216 355.038,379.883 354.5,381.5 Z"/></g>
<g><path style="opacity:0.993" fill="#73c7ec" d="M 336.5,381.5 C 342.5,381.5 348.5,381.5 354.5,381.5C 355.167,382.833 355.833,382.833 356.5,381.5C 380.169,381.333 403.836,381.5 427.5,382C 390.339,446.646 353.005,511.146 315.5,575.5C 314.13,577.25 313.13,579.25 312.5,581.5C 311.662,581.842 311.328,582.508 311.5,583.5C 305.833,592.833 300.167,602.167 294.5,611.5C 292.657,613.853 291.323,616.52 290.5,619.5C 289.662,619.842 289.328,620.508 289.5,621.5C 270.945,653.601 252.112,685.601 233,717.5C 217.833,691.833 202.667,666.167 187.5,640.5C 204.5,611.167 221.5,581.833 238.5,552.5C 216.51,551.5 194.51,551.167 172.5,551.5C 168.994,550.502 165.328,550.502 161.5,551.5C 153.16,551.666 144.827,551.5 136.5,551C 129.207,538.916 122.041,526.749 115,514.5C 114.448,511.581 115.115,508.914 117,506.5C 123.586,495.663 129.919,484.663 136,473.5C 165.118,472.194 194.285,472.194 223.5,473.5C 224.167,473.5 224.833,473.5 225.5,473.5C 245.178,473.833 264.845,473.5 284.5,472.5C 302.11,442.275 319.443,411.941 336.5,381.5 Z"/></g>
<g><path style="opacity:1" fill="#88b3f9" d="M 469.5,713.5 C 470.063,716.295 471.396,718.628 473.5,720.5C 473.5,721.167 473.833,721.5 474.5,721.5C 479.567,731.3 484.901,740.967 490.5,750.5C 491.569,752.969 492.902,755.302 494.5,757.5C 494.5,758.167 494.833,758.5 495.5,758.5C 495.5,759.167 495.833,759.5 496.5,759.5C 514.223,791.274 532.223,822.941 550.5,854.5C 525.337,855.325 500.171,855.992 475,856.5C 470.167,856.167 465.333,855.833 460.5,855.5C 443.467,826.296 426.633,796.962 410,767.5C 398.222,786.731 386.722,806.065 375.5,825.5C 373.659,827.849 372.326,830.515 371.5,833.5C 370.833,833.5 370.5,833.833 370.5,834.5C 370.5,834.833 370.5,835.167 370.5,835.5C 366.363,841.828 362.363,848.328 358.5,855C 343.156,855.833 327.822,855.666 312.5,854.5C 305.333,842.167 298.167,829.833 291,817.5C 290.333,816.5 290.333,815.5 291,814.5C 305.394,790.279 319.56,765.946 333.5,741.5C 334.338,741.158 334.672,740.492 334.5,739.5C 344.6,722.813 354.6,705.979 364.5,689C 346.581,658.497 328.914,627.83 311.5,597C 314.572,592.353 317.238,587.52 319.5,582.5C 320.833,582.5 321.5,581.833 321.5,580.5C 332.817,559.866 344.65,539.533 357,519.5C 394.364,584.335 431.864,649.002 469.5,713.5 Z"/></g>
<g><path style="opacity:0.584" fill="#959bb2" d="M 800.5,550.5 C 794.09,573.305 787.757,596.138 781.5,619C 744.635,628.906 707.968,639.073 671.5,649.5C 669.167,649.5 666.833,649.5 664.5,649.5C 665.475,646.933 666.142,644.267 666.5,641.5C 667.5,641.5 668.5,641.5 669.5,641.5C 668.841,643.138 668.174,644.805 667.5,646.5C 668,646.833 668.5,647.167 669,647.5C 706.1,637.188 743.266,627.188 780.5,617.5C 786.164,595.506 791.831,573.506 797.5,551.5C 798.151,550.909 798.818,550.243 799.5,549.5C 800.107,549.624 800.44,549.957 800.5,550.5 Z"/></g>
<g><path style="opacity:0.569" fill="#949ab2" d="M 172.5,551.5 C 120.803,565.008 69.1368,578.674 17.5,592.5C 11.5582,610.925 6.22485,629.592 1.5,648.5C 14.4396,663.108 28.1063,677.108 42.5,690.5C 87.0444,678.573 131.544,666.573 176,654.5C 164.811,699.249 152.978,743.916 140.5,788.5C 167.432,816.265 194.932,843.598 223,870.5C 245.64,787.605 267.807,704.605 289.5,621.5C 290.338,621.158 290.672,620.492 290.5,619.5C 291.323,616.52 292.657,613.853 294.5,611.5C 271.471,699.283 247.971,786.95 224,874.5C 195.667,846.833 167.333,819.167 139,791.5C 138.333,789.5 138.333,787.5 139,785.5C 150.978,742.916 162.311,700.249 173,657.5C 129.007,669.873 84.8406,681.373 40.5,692C 26.9652,678.298 13.2985,664.798 -0.5,651.5C -0.5,649.5 -0.5,647.5 -0.5,645.5C 4.94486,627.396 9.94486,609.063 14.5,590.5C 63.7279,577.945 112.728,564.945 161.5,551.5C 165.328,550.502 168.994,550.502 172.5,551.5 Z"/></g>
<g><path style="opacity:0.747" fill="#9399b2" d="M 315.5,575.5 C 317.5,577.167 319.5,578.833 321.5,580.5C 321.5,581.833 320.833,582.5 319.5,582.5C 318.542,581.038 317.376,579.705 316,578.5C 305.752,615.995 295.585,653.495 285.5,691C 301.701,707.368 318.035,723.535 334.5,739.5C 334.672,740.492 334.338,741.158 333.5,741.5C 316.327,725.161 299.661,708.327 283.5,691C 293.229,655.249 302.563,619.415 311.5,583.5C 312.338,583.158 312.672,582.492 312.5,581.5C 313.13,579.25 314.13,577.25 315.5,575.5 Z"/></g>
<g><path style="opacity:0.551" fill="#949ab2" d="M 722.5,797.5 C 722.5,796.833 722.167,796.5 721.5,796.5C 719.404,793.738 717.738,790.738 716.5,787.5C 753.605,825.105 790.938,862.605 828.5,900C 847.628,895.573 866.628,890.406 885.5,884.5C 890.978,865.92 895.811,847.253 900,828.5C 867.5,796 835,763.5 802.5,731C 847.068,718.691 891.735,706.691 936.5,695C 946.653,657.721 956.653,620.388 966.5,583C 883.256,604.394 800.256,626.56 717.5,649.5C 714.5,649.5 711.5,649.5 708.5,649.5C 795.257,625.56 882.257,602.394 969.5,580C 959.249,618.838 948.915,657.671 938.5,696.5C 894.409,708.031 850.409,719.864 806.5,732C 838.333,763.833 870.167,795.667 902,827.5C 902.458,830.558 902.124,833.558 901,836.5C 896.702,853.53 891.869,870.364 886.5,887C 866.955,892.802 847.289,897.802 827.5,902C 792.632,866.965 757.632,832.132 722.5,797.5 Z"/></g>
<g><path style="opacity:0.994" fill="#73c7ec" d="M 664.5,649.5 C 666.833,649.5 669.167,649.5 671.5,649.5C 683.833,649.5 696.167,649.5 708.5,649.5C 711.5,649.5 714.5,649.5 717.5,649.5C 754.506,649.167 791.506,649.5 828.5,650.5C 814.167,675.833 799.833,701.167 785.5,726.5C 751.167,727.167 716.833,727.833 682.5,728.5C 693.592,748.357 704.926,768.024 716.5,787.5C 717.738,790.738 719.404,793.738 721.5,796.5C 722.167,796.5 722.5,796.833 722.5,797.5C 725.815,803.823 729.148,810.156 732.5,816.5C 725.562,829.54 718.229,842.373 710.5,855C 695.167,855.667 679.833,855.667 664.5,855C 650.362,830.554 636.362,806.054 622.5,781.5C 622.5,780.167 621.833,779.5 620.5,779.5C 611.089,762.239 601.423,745.073 591.5,728C 556.167,727.667 520.833,727.333 485.5,727C 482.97,722.33 480.303,717.83 477.5,713.5C 477.672,712.508 477.338,711.842 476.5,711.5C 464.296,691.087 452.629,670.42 441.5,649.5C 515.833,649.5 590.167,649.5 664.5,649.5 Z"/></g>
<g><path style="opacity:0.513" fill="#9398b1" d="M 476.5,711.5 C 477.338,711.842 477.672,712.508 477.5,713.5C 475.436,713.687 473.436,714.187 471.5,715C 499,742.5 526.5,770 554,797.5C 576.091,791.269 598.258,785.269 620.5,779.5C 621.833,779.5 622.5,780.167 622.5,781.5C 599.407,787.086 576.407,793.086 553.5,799.5C 527.146,773.479 500.812,747.479 474.5,721.5C 473.833,721.5 473.5,721.167 473.5,720.5C 471.396,718.628 470.063,716.295 469.5,713.5C 471.599,712.388 473.933,711.721 476.5,711.5 Z"/></g>
<g><path style="opacity:0.715" fill="#959ab2" d="M 490.5,750.5 C 554.479,813.812 618.146,877.479 681.5,941.5C 643.066,952.734 604.566,963.734 566,974.5C 533.667,942.167 501.333,909.833 469,877.5C 456.54,921.34 444.707,965.34 433.5,1009.5C 415.9,1013.56 398.567,1018.23 381.5,1023.5C 378.5,1023.5 375.5,1023.5 372.5,1023.5C 359.202,1009.7 345.702,996.035 332,982.5C 331.833,981.833 331.667,981.167 331.5,980.5C 344.66,932.191 357.66,883.858 370.5,835.5C 370.5,835.167 370.5,834.833 370.5,834.5C 371.167,834.5 371.5,834.167 371.5,833.5C 372.326,830.515 373.659,827.849 375.5,825.5C 362.004,877.152 348.004,928.652 333.5,980C 347.667,994.167 361.833,1008.33 376,1022.5C 394.382,1017.11 412.882,1012.11 431.5,1007.5C 443.042,962.666 455.209,917.999 468,873.5C 500.5,906 533,938.5 565.5,971C 603.017,961.786 640.35,951.619 677.5,940.5C 617.479,879.812 557.146,819.479 496.5,759.5C 495.833,759.5 495.5,759.167 495.5,758.5C 494.833,758.5 494.5,758.167 494.5,757.5C 492.902,755.302 491.569,752.969 490.5,750.5 Z"/></g>
</svg>
